<svg xmlns="http://www.w3.org/2000/svg" width="14" height="17"><path fill="#26272d" d="M5.74 11.246c-.472 2.342-1.05 4.588-2.76 5.762-.527-3.54.776-6.2 1.38-9.023-1.03-1.641.125-4.945 2.3-4.13 2.676 1-2.318 6.101 1.035 6.739 3.5.665 4.93-5.743 2.759-7.827-3.136-3.009-9.13-.068-8.393 4.24.18 1.053 1.33 1.372.46 2.826C.514 9.413-.085 7.916-.009 5.92.117 2.653 3.097.365 6.086.05c3.78-.401 7.328 1.312 7.818 4.674.551 3.795-1.706 7.905-5.749 7.609-1.095-.08-1.555-.593-2.414-1.087z" opacity=".3"/></svg>