<svg xmlns="http://www.w3.org/2000/svg" width="17" height="14"><path fill="#26272d" d="M17 1.658a6.93 6.93 0 01-2.003.557A3.537 3.537 0 0016.53.26a6.928 6.928 0 01-2.215.858A3.458 3.458 0 0011.77 0C9.844 0 8.282 1.583 8.282 3.535c0 .278.032.547.09.806C5.476 4.193 2.907 2.786 1.187.648c-.3.522-.472 1.13-.472 1.777 0 1.226.616 2.308 1.551 2.942a3.452 3.452 0 01-1.58-.443v.045c0 1.712 1.202 3.14 2.798 3.465a3.465 3.465 0 01-1.575.06c.444 1.404 1.732 2.426 3.258 2.454a6.939 6.939 0 01-4.332 1.513c-.28 0-.559-.016-.832-.049A9.78 9.78 0 005.348 14c6.414 0 9.922-5.384 9.922-10.054 0-.154-.004-.306-.01-.457A7.149 7.149 0 0017 1.66z" opacity=".3"/></svg>