<svg xmlns="http://www.w3.org/2000/svg" width="16" height="15" viewBox="0 0 16 15"><g><g opacity=".3"><path fill="#26272d" d="M3.64 15.008H.212V4.89H3.64zm-1.714-11.5h-.023C.753 3.508.01 2.73.01 1.76.009.767.775.011 1.949.011c1.173 0 1.895.756 1.916 1.749 0 .971-.743 1.748-1.94 1.748zm3.613 11.5s.045-9.17 0-10.119h3.43v1.433c.455-.69 1.27-1.67 3.09-1.67 2.255 0 3.948 1.445 3.948 4.554v5.802h-3.43V9.595c0-1.36-.496-2.289-1.738-2.289-.946 0-1.51.626-1.757 1.23-.093.216-.114.52-.114.821v5.651z"/></g></g></svg>